<svg width="200" height="17" viewBox="0 0 200 17" fill="none" xmlns="http://www.w3.org/2000/svg">
<g id="Frame" clip-path="url(#clip0_636_5782)">
<g id="Group">
<path id="Vector" d="M34.9161 2.95652C35.3544 2.51304 35.9387 2.21739 36.5231 2.21739H36.8153C37.3996 2.21739 37.984 2.36522 38.4223 2.66087C38.8606 2.95652 39.1527 3.4 39.1527 3.84348C39.1527 4.28696 39.2988 4.43478 39.591 4.58261C39.8832 4.73043 40.0293 4.87826 40.3215 4.87826C40.6137 4.87826 40.9059 4.73043 41.0519 4.58261C41.3441 4.43478 41.3441 4.13913 41.3441 3.69565V3.84348C41.3441 3.25217 41.198 2.8087 40.9059 2.36522C40.6137 1.92174 40.3215 1.47826 39.8832 1.18261C39.4449 0.886957 39.0067 0.591304 38.4223 0.443478C38.1301 0.147826 37.5457 0 36.8153 0H36.5231C35.9387 0 35.2083 0.147826 34.77 0.295652C34.1856 0.591304 33.7473 0.886956 33.3091 1.33043C32.8708 1.77391 32.5786 2.21739 32.2864 2.8087C31.9942 3.4 31.8481 3.9913 31.8481 4.58261V12.2696C31.8481 12.8609 31.9942 13.6 32.2864 14.0435C32.5786 14.6348 32.8708 15.0783 33.3091 15.5217C33.7473 15.9652 34.1856 16.2609 34.77 16.5565C35.3544 16.8522 35.9387 16.8522 36.6692 16.8522H36.9614C37.5457 16.8522 38.2762 16.7043 38.7145 16.4087C39.2988 16.113 39.7371 15.8174 40.1754 15.3739C40.6137 14.9304 40.9059 14.487 41.198 13.8957C41.4902 13.3043 41.6363 12.713 41.6363 11.9739V8.72174C41.6363 8.42609 41.4902 8.13043 41.3441 7.83478C41.0519 7.53913 40.9059 7.53913 40.4676 7.53913H37.3996C36.9614 7.53913 36.6692 7.68696 36.5231 7.83478C36.377 8.13043 36.2309 8.27826 36.2309 8.57391C36.2309 8.86957 36.377 9.16522 36.5231 9.31304C36.6692 9.6087 36.9614 9.6087 37.3996 9.6087H39.2988V12.1217C39.2988 12.4174 39.2988 12.713 39.1527 13.0087C39.0067 13.3043 38.8606 13.6 38.5684 13.7478C38.4223 13.8957 38.1301 14.1913 37.8379 14.3391C37.5457 14.487 37.2535 14.487 36.9614 14.487H36.6692C36.0848 14.487 35.5004 14.1913 35.0622 13.7478C34.6239 13.3043 34.3317 12.713 34.3317 12.1217V4.58261C34.1856 3.9913 34.4778 3.4 34.9161 2.95652Z" fill="#272524"/>
<path id="Vector_2" d="M60.1899 7.83539C60.4821 7.39192 60.6282 6.94844 60.7743 6.50496C60.9204 6.06148 60.9204 5.47018 60.9204 5.0267V4.87887C60.9204 4.28757 60.7743 3.54844 60.4821 3.10496C60.1899 2.51365 59.8978 2.07018 59.4595 1.6267C59.0212 1.18322 58.5829 0.887568 57.9986 0.591916C57.4142 0.296264 56.8298 0.148438 56.2455 0.148438H52.301C52.0088 0.148438 51.7166 0.296264 51.5705 0.44409C51.2783 0.739742 51.2783 0.887568 51.2783 1.18322V15.818C51.2783 16.2615 51.4244 16.5571 51.5705 16.705C51.8627 16.8528 52.0088 17.0006 52.4471 17.0006C52.7392 17.0006 53.0314 16.8528 53.1775 16.705C53.4697 16.5571 53.4697 16.2615 53.4697 15.818V9.75713H55.3689L58.4368 16.4093C58.5829 16.705 58.729 16.8528 58.8751 16.8528C59.0212 17.0006 59.1673 17.0006 59.4595 17.0006C59.8978 17.0006 60.1899 16.8528 60.336 16.705C60.4821 16.5571 60.6282 16.2615 60.6282 15.818C60.6282 15.6702 60.6282 15.5223 60.4821 15.3745L57.7064 9.60931C58.4368 9.46148 58.8751 9.16583 59.3134 8.87018C59.6056 8.57452 59.8978 8.27887 60.1899 7.83539ZM58.729 5.0267C58.729 5.618 58.5829 6.20931 58.1447 6.65279C57.7064 7.09626 57.122 7.39192 56.5376 7.39192H53.6158V2.51365H56.3915C56.9759 2.51365 57.5603 2.80931 57.9986 3.25279C58.4368 3.69626 58.729 4.28757 58.729 5.0267Z" fill="#272524"/>
<path id="Vector_3" d="M78.7438 1.33043C78.3055 0.886956 77.8672 0.591304 77.2828 0.295652C76.6985 0.147826 76.1141 0 75.3836 0H75.2375C74.6532 0 73.9227 0.147826 73.3383 0.295652C72.754 0.591304 72.3157 0.886956 71.8774 1.33043C71.4391 1.77391 71.147 2.21739 70.8548 2.8087C70.5626 3.4 70.4165 3.9913 70.4165 4.58261V12.2696C70.4165 12.8609 70.5626 13.6 70.8548 14.0435C71.147 14.6348 71.4391 15.0783 71.8774 15.5217C72.3157 15.9652 72.754 16.2609 73.3383 16.5565C73.9227 16.8522 74.5071 16.8522 75.0915 16.8522H75.3836C75.968 16.8522 76.6985 16.7043 77.1367 16.5565C77.7211 16.2609 78.1594 15.9652 78.5977 15.5217C79.0359 15.0783 79.3281 14.6348 79.6203 14.0435C79.9125 13.4522 80.0586 12.8609 80.0586 12.2696V4.58261C80.0586 3.9913 79.9125 3.4 79.6203 2.8087C79.4742 2.21739 79.182 1.77391 78.7438 1.33043ZM77.8672 12.4174C77.8672 13.1565 77.575 13.6 77.1367 14.0435C76.6985 14.487 76.1141 14.7826 75.5297 14.7826H75.2375C74.6532 14.7826 74.0688 14.487 73.6305 14.0435C73.1923 13.6 72.9001 13.0087 72.9001 12.4174V4.58261C72.9001 3.9913 73.1923 3.4 73.6305 2.95652C74.0688 2.51304 74.6532 2.21739 75.2375 2.21739H75.5297C76.1141 2.21739 76.6985 2.36522 77.1367 2.8087C77.575 3.25217 77.8672 3.84348 77.8672 4.43478V12.4174Z" fill="#272524"/>
<path id="Vector_4" d="M95.3982 15.9652L98.9044 1.47826C98.9044 1.33043 98.9044 1.33043 98.9044 1.18261C98.9044 0.886957 98.7583 0.591304 98.6122 0.443478C98.32 0.147826 98.0278 0 97.7356 0C97.4435 0 97.2974 0 97.1513 0.147826C97.0052 0.295652 96.8591 0.443478 96.713 0.886957L94.0833 11.9739L91.4537 0.886957C91.3076 0.591304 91.1615 0.295652 91.0154 0.147826C90.8693 0 90.5771 0 90.431 0C90.1389 0 89.8467 0.147826 89.5545 0.295652C89.2623 0.591304 89.1162 0.886957 89.1162 1.18261C89.1162 1.33043 89.1162 1.47826 89.1162 1.47826L92.6224 16.113C92.7685 16.4087 92.9146 16.7043 93.0607 16.8522C93.3529 17 93.6451 17.1478 93.9373 17.1478C94.2294 17.1478 94.5216 17 94.8138 16.8522C95.106 16.5565 95.2521 16.4087 95.3982 15.9652Z" fill="#272524"/>
<path id="Vector_5" d="M109.569 16.8521H116.874C117.312 16.8521 117.604 16.7042 117.75 16.5564C117.896 16.2607 118.042 16.1129 118.042 15.8173C118.042 15.5216 117.896 15.226 117.75 15.0781C117.604 14.7825 117.312 14.7825 116.874 14.7825H110.738V9.46075H114.974C115.413 9.46075 115.705 9.31292 115.851 9.1651C115.997 8.86945 116.143 8.72162 116.143 8.42597C116.143 8.13032 115.997 7.83466 115.851 7.68684C115.705 7.39118 115.413 7.39119 114.974 7.39119H110.738V2.51292H116.874C117.312 2.51292 117.604 2.3651 117.75 2.21727C117.896 1.92162 118.042 1.77379 118.042 1.47814C118.042 1.18249 117.896 0.886838 117.75 0.739012C117.604 0.443359 117.312 0.443359 116.874 0.443359H109.569C109.277 0.443359 108.985 0.591185 108.839 0.739012C108.546 1.03466 108.546 1.18249 108.546 1.47814V15.9651C108.546 16.2608 108.692 16.5564 108.839 16.7042C108.985 16.7042 109.277 16.8521 109.569 16.8521Z" fill="#272524"/>
<path id="Vector_6" d="M138.349 16.7043C138.642 16.8522 138.788 17 139.08 17C139.372 17 139.664 16.8522 139.81 16.7043C140.102 16.5565 140.102 16.2609 140.102 15.8174V1.18261C140.102 0.886957 139.956 0.591304 139.81 0.443478C139.81 0.147826 139.518 0 139.226 0H138.934C138.642 0 138.349 0 138.203 0.147826C138.057 0.295652 137.911 0.443478 137.765 0.73913L134.259 8.72174L130.753 0.73913C130.46 0.295652 130.168 0 129.584 0H129.292C128.999 0 128.707 0.147826 128.561 0.295652C128.269 0.591304 128.269 0.73913 128.269 1.03478V15.6696C128.269 16.113 128.415 16.4087 128.561 16.5565C128.853 16.7043 128.999 16.8522 129.292 16.8522C129.584 16.8522 129.876 16.7043 130.022 16.5565C130.314 16.4087 130.314 16.113 130.314 15.6696V5.32174L132.944 11.3826C133.09 11.6783 133.236 11.8261 133.382 11.9739C133.528 12.1217 133.821 12.1217 134.113 12.1217C134.405 12.1217 134.551 12.1217 134.843 11.9739C135.135 11.8261 135.281 11.6783 135.281 11.3826L137.911 5.32174V15.6696C138.057 16.2609 138.203 16.5565 138.349 16.7043Z" fill="#272524"/>
<path id="Vector_7" d="M156.464 0.147826C156.172 0 155.88 0 155.588 0C155.296 0 155.003 0.147826 154.857 0.295652C154.565 0.443478 154.419 0.73913 154.273 1.03478L149.744 15.6696C149.744 15.8174 149.744 15.9652 149.744 16.113C149.744 16.4087 149.89 16.7043 150.036 16.8522C150.182 17 150.475 17.1478 150.913 17.1478C151.205 17.1478 151.351 17.1478 151.643 17C151.936 16.8522 152.082 16.7043 152.082 16.4087L153.104 13.1565H158.364L159.386 16.4087C159.532 16.7043 159.678 16.8522 159.824 17C159.971 17.1478 160.263 17.1478 160.409 17.1478C160.701 17.1478 160.993 17 161.285 16.8522C161.432 16.7043 161.578 16.4087 161.578 16.113C161.578 15.9652 161.578 15.9652 161.578 15.8174L157.049 1.18261C156.903 0.591304 156.757 0.295652 156.464 0.147826ZM153.689 10.6435L155.588 4.28696L157.487 10.6435H153.689Z" fill="#272524"/>
<path id="Vector_8" d="M177.648 0.44409C177.064 0.148438 176.479 0.148438 175.895 0.148438H172.096C171.804 0.148438 171.512 0.296264 171.366 0.44409C171.074 0.739742 171.074 0.887568 171.074 1.18322V15.6702C171.074 15.9658 171.22 16.2615 171.366 16.4093C171.658 16.705 171.804 16.705 172.096 16.705H175.895C176.479 16.705 177.21 16.5571 177.648 16.4093C178.232 16.1137 178.671 15.818 179.109 15.5224C179.547 15.2267 179.839 14.6354 180.131 14.0441C180.424 13.4528 180.57 12.8615 180.57 12.1224V4.87887C180.57 4.13974 180.424 3.54844 180.131 2.95713C179.839 2.36583 179.547 1.92235 179.109 1.47887C178.817 1.03539 178.232 0.739742 177.648 0.44409ZM178.232 12.1224C178.232 12.418 178.232 12.7137 178.086 13.0093C177.94 13.305 177.794 13.6006 177.502 13.7484C177.356 13.8963 177.064 14.1919 176.771 14.3397C176.479 14.4876 176.187 14.4876 175.895 14.4876H173.265V2.51366H175.895C176.187 2.51366 176.479 2.51365 176.771 2.66148C177.064 2.80931 177.356 2.95713 177.502 3.25279C177.648 3.40061 177.94 3.69626 178.086 3.99192C178.232 4.28757 178.232 4.58322 178.232 4.87887V12.1224Z" fill="#272524"/>
<path id="Vector_9" d="M198.831 2.51292C199.269 2.51292 199.562 2.3651 199.708 2.21727C199.854 1.92162 200 1.77379 200 1.47814C200 1.18249 199.854 0.886838 199.708 0.739012C199.562 0.443359 199.269 0.443359 198.831 0.443359H191.527C191.234 0.443359 190.942 0.591185 190.796 0.739012C190.504 1.03466 190.504 1.18249 190.504 1.47814V15.9651C190.504 16.2608 190.65 16.5564 190.796 16.7042C191.088 16.9999 191.234 16.9999 191.527 16.9999H198.831C199.269 16.9999 199.562 16.8521 199.708 16.7042C199.854 16.4086 200 16.2608 200 15.9651C200 15.6694 199.854 15.3738 199.708 15.226C199.562 14.9303 199.269 14.9303 198.831 14.9303H192.695V9.46075H196.932C197.37 9.46075 197.662 9.31292 197.809 9.1651C197.955 8.86945 198.101 8.72162 198.101 8.42597C198.101 8.13032 197.955 7.83466 197.809 7.68684C197.662 7.39119 197.37 7.39119 196.932 7.39119H192.695V2.51292H198.831Z" fill="#272524"/>
<path id="Vector_10" d="M11.5413 16.5566V16.4088C11.5413 16.5566 9.93426 12.4175 9.34989 11.8262C8.03506 10.4957 6.57414 10.6436 5.5515 10.6436H0.584368C0.292184 10.6436 0 10.7914 0 11.087V11.2349C0 11.2349 1.60701 15.374 2.19138 15.8175C3.36012 17.0001 4.38276 17.0001 5.98977 17.0001H11.103C11.3952 17.0001 11.5413 16.8523 11.5413 16.5566Z" fill="#272524"/>
<path id="Vector_11" d="M20.0148 11.3826C20.0148 8.27826 16.8008 1.47826 16.3625 0.295652C16.3625 0.147826 16.2164 0 15.9242 0C15.7781 0 15.486 0.147826 15.486 0.295652C13.2946 5.46957 11.6876 9.31304 11.6876 9.31304C11.5415 9.75652 11.3954 10.2 11.5415 10.6435C11.6876 11.087 12.5641 12.8609 13.1485 14.3391C14.025 16.4087 14.1711 17 16.0703 17C18.4078 17 20.0148 14.9304 20.0148 11.3826Z" fill="#272524"/>
</g>
</g>
<defs>
<clipPath id="clip0_636_5782">
<rect width="200" height="17" fill="white"/>
</clipPath>
</defs>
</svg>
